General
Format                                   : Flash Video
File size                                : 1.21 GiB
Duration                                 : 2h 45mn
Overall bit rate                         : 1 046 Kbps
httphostheader                           :

Video
Format                                   : AVC
Format/Info                              : Advanced Video Codec
Format profile                           : Main@L3.0
Format settings, CABAC                   : Yes
Format settings, ReFrames                : 3 frames
Format settings, GOP                     : M=1, N=25
Codec ID                                 : 7
Duration                                 : 2h 45mn
Bit rate                                 : 941 Kbps
Width                                    : 854 pixels
Height                                   : 366 pixels
Display aspect ratio                     : 2.35:1
Frame rate mode                          : Constant
Frame rate                               : 25.000 fps
Color space                              : YUV
Chroma subsampling                       : 4:2:0
Bit depth                                : 8 bits
Scan type                                : Progressive
Bits/(Pixel*Frame)                       : 0.120
Stream size                              : 1.09 GiB (90%)

Audio
Format                                   : AAC
Format/Info                              : Advanced Audio Codec
Format profile                           : LC
Codec ID                                 : 10
Duration                                 : 2h 45mn
Bit rate                                 : 96.7 Kbps
Channel(s)                               : 2 channels
Channel positions                        : Front: L R
Sampling rate                            : 44.1 KHz
Compression mode                         : Lossy
Stream size                              : 114 MiB (9%)
